<svg xmlns="http://www.w3.org/2000/svg" fill="none" stroke="currentColor" stroke-width="1.8" stroke-linecap="round" stroke-linejoin="round" style="display: none;">
  <symbol id="icon-home" viewBox="0 0 24 24">
    <path d="M3 10.8 12 3l9 7.8" />
    <path d="M5.5 10v10h5v-5.5h3V20h5V10" />
  </symbol>

  <symbol id="icon-life" viewBox="0 0 24 24">
    <path d="M7 4.5h10a2 2 0 0 1 2 2V20l-7-3-7 3V6.5a2 2 0 0 1 2-2Z" />
    <path d="M8.5 9h7" />
    <path d="M8.5 12h4.5" />
  </symbol>

  <symbol id="icon-music" viewBox="0 0 24 24">
    <path d="M9 18.2a2.7 2.7 0 1 1-1.4-2.4L17 13.5" />
    <path d="M17 15.2a2.7 2.7 0 1 1-1.4-2.4" />
    <path d="M17 12.8V4.5l-8 2v9.3" />
  </symbol>

  <symbol id="icon-study" viewBox="0 0 24 24">
    <path d="M4.5 5.5A2.5 2.5 0 0 1 7 3h12v15H7a2.5 2.5 0 0 0-2.5 2.5v-15Z" />
    <path d="M7 18h12" />
    <path d="M8.5 7.5h6" />
    <path d="M8.5 10.5h4" />
  </symbol>

  <symbol id="icon-add" viewBox="0 0 24 24">
    <path d="M12 5v14" />
    <path d="M5 12h14" />
  </symbol>

  <symbol id="icon-upload" viewBox="0 0 24 24">
    <path d="M12 16V4.5" />
    <path d="m7.5 9 4.5-4.5L16.5 9" />
    <path d="M5 15.5V18a2 2 0 0 0 2 2h10a2 2 0 0 0 2-2v-2.5" />
  </symbol>

  <symbol id="icon-edit" viewBox="0 0 24 24">
    <path d="M4.5 19.5h4l10-10a2.1 2.1 0 0 0-3-3l-10 10-1 3Z" />
    <path d="m14.8 7.2 3 3" />
  </symbol>

  <symbol id="icon-delete" viewBox="0 0 24 24">
    <path d="M5 7h14" />
    <path d="M9 7V5.5A1.5 1.5 0 0 1 10.5 4h3A1.5 1.5 0 0 1 15 5.5V7" />
    <path d="M8 10v8.5A1.5 1.5 0 0 0 9.5 20h5a1.5 1.5 0 0 0 1.5-1.5V10" />
    <path d="M10.5 11.5v5" />
    <path d="M13.5 11.5v5" />
  </symbol>

  <symbol id="icon-close" viewBox="0 0 24 24">
    <path d="m6.5 6.5 11 11" />
    <path d="m17.5 6.5-11 11" />
  </symbol>

  <symbol id="icon-login" viewBox="0 0 24 24">
    <path d="M10 7V5.5A1.5 1.5 0 0 1 11.5 4h6A1.5 1.5 0 0 1 19 5.5v13a1.5 1.5 0 0 1-1.5 1.5h-6a1.5 1.5 0 0 1-1.5-1.5V17" />
    <path d="M4 12h10" />
    <path d="m10.5 8.5 3.5 3.5-3.5 3.5" />
  </symbol>

  <symbol id="icon-logout" viewBox="0 0 24 24">
    <path d="M14 7V5.5A1.5 1.5 0 0 0 12.5 4h-6A1.5 1.5 0 0 0 5 5.5v13A1.5 1.5 0 0 0 6.5 20h6a1.5 1.5 0 0 0 1.5-1.5V17" />
    <path d="M10 12h10" />
    <path d="m16.5 8.5 3.5 3.5-3.5 3.5" />
  </symbol>

  <symbol id="icon-user" viewBox="0 0 24 24">
    <path d="M12 12a4 4 0 1 0 0-8 4 4 0 0 0 0 8Z" />
    <path d="M4.5 20a7.5 7.5 0 0 1 15 0" />
  </symbol>

  <symbol id="icon-play" viewBox="0 0 24 24">
    <path d="M8 5.5v13l10-6.5-10-6.5Z" />
  </symbol>

  <symbol id="icon-external-link" viewBox="0 0 24 24">
    <path d="M10 6.5H6.5A1.5 1.5 0 0 0 5 8v9.5A1.5 1.5 0 0 0 6.5 19H16a1.5 1.5 0 0 0 1.5-1.5V14" />
    <path d="M13.5 5H19v5.5" />
    <path d="M12 12 18.5 5.5" />
  </symbol>

  <symbol id="icon-feedback" viewBox="0 0 24 24">
    <path d="M5 5.5A2.5 2.5 0 0 1 7.5 3h9A2.5 2.5 0 0 1 19 5.5v7A2.5 2.5 0 0 1 16.5 15H11l-5 4v-4.2A2.5 2.5 0 0 1 5 12.5v-7Z" />
    <path d="M8.5 8h7" />
    <path d="M8.5 11h4.5" />
  </symbol>

  <symbol id="icon-move-first" viewBox="0 0 24 24">
    <path d="M6 5v14" />
    <path d="m18 7-5 5 5 5" />
    <path d="M13 12h7" />
  </symbol>

  <symbol id="icon-move-last" viewBox="0 0 24 24">
    <path d="M18 5v14" />
    <path d="m6 7 5 5-5 5" />
    <path d="M4 12h7" />
  </symbol>

  <symbol id="icon-note" viewBox="0 0 24 24">
    <path d="M7 4h7l4 4v12H7a2 2 0 0 1-2-2V6a2 2 0 0 1 2-2Z" />
    <path d="M14 4v4h4" />
    <path d="M8.5 12h7" />
    <path d="M8.5 15.5h5" />
  </symbol>

  <symbol id="icon-code" viewBox="0 0 24 24">
    <path d="m9 8-4 4 4 4" />
    <path d="m15 8 4 4-4 4" />
    <path d="m13 5.5-2 13" />
  </symbol>

  <symbol id="icon-css" viewBox="0 0 24 24">
    <path d="M5 4h14l-1.3 14.2L12 20 6.3 18.2 5 4Z" />
    <path d="M8.5 8h7" />
    <path d="M8.8 11.5h6.1l-.4 4-2.5.8-2.5-.8" />
  </symbol>

  <symbol id="icon-js" viewBox="0 0 24 24">
    <path d="M5 5h14v14H5V5Z" />
    <path d="M10 10v4.5A1.5 1.5 0 0 1 8.5 16H8" />
    <path d="M14 16h1.2a1.3 1.3 0 0 0 0-2.6h-.4a1.3 1.3 0 0 1 0-2.6H16" />
  </symbol>

  <symbol id="icon-server" viewBox="0 0 24 24">
    <path d="M6.5 4h11A1.5 1.5 0 0 1 19 5.5v4A1.5 1.5 0 0 1 17.5 11h-11A1.5 1.5 0 0 1 5 9.5v-4A1.5 1.5 0 0 1 6.5 4Z" />
    <path d="M6.5 13h11A1.5 1.5 0 0 1 19 14.5v4A1.5 1.5 0 0 1 17.5 20h-11A1.5 1.5 0 0 1 5 18.5v-4A1.5 1.5 0 0 1 6.5 13Z" />
    <path d="M8 7.5h.01" />
    <path d="M8 16.5h.01" />
    <path d="M11 7.5h5" />
    <path d="M11 16.5h5" />
  </symbol>

  <symbol id="icon-grid" viewBox="0 0 24 24">
    <path d="M5 5h5v5H5V5Z" />
    <path d="M14 5h5v5h-5V5Z" />
    <path d="M5 14h5v5H5v-5Z" />
    <path d="M14 14h5v5h-5v-5Z" />
  </symbol>

  <symbol id="icon-empty" viewBox="0 0 24 24">
    <path d="M5 8h14l-1.2 10A2.2 2.2 0 0 1 15.6 20H8.4a2.2 2.2 0 0 1-2.2-2L5 8Z" />
    <path d="M8 8V6.5A2.5 2.5 0 0 1 10.5 4h3A2.5 2.5 0 0 1 16 6.5V8" />
    <path d="M9 13h6" />
  </symbol>

  <symbol id="icon-warning" viewBox="0 0 24 24">
    <path d="M11 5.2 4.6 17a2 2 0 0 0 1.8 3h11.2a2 2 0 0 0 1.8-3L13 5.2a1.1 1.1 0 0 0-2 0Z" />
    <path d="M12 9v4" />
    <path d="M12 16.5h.01" />
  </symbol>

  <symbol id="icon-check" viewBox="0 0 24 24">
    <path d="m5 12.5 4.2 4.2L19 7" />
  </symbol>

  <symbol id="icon-netlify" viewBox="0 0 24 24">
    <path d="M12 3.8 19.2 8v8L12 20.2 4.8 16V8L12 3.8Z" />
    <path d="M12 3.8v16.4" />
    <path d="M4.8 8 12 12l7.2-4" />
    <path d="m4.8 16 7.2-4 7.2 4" />
  </symbol>

  <symbol id="icon-render" viewBox="0 0 24 24">
    <path d="M6 5h7.5a4.5 4.5 0 0 1 0 9H6V5Z" />
    <path d="M6 14h7.2l4.8 5" />
    <path d="M6 19V5" />
  </symbol>

  <symbol id="icon-supabase" viewBox="0 0 24 24">
    <path d="M13.8 3 5.8 13.2a1 1 0 0 0 .8 1.6h4.4L10.2 21l8-10.2a1 1 0 0 0-.8-1.6H13l.8-6.2Z" />
  </symbol>
</svg>
